<?xml version="1.0" standalone="no"?>
<!DOCTYPE svg PUBLIC "-//W3C//DTD SVG 1.1//EN" "http://www.w3.org/Graphics/SVG/1.1/DTD/svg11.dtd" >
<svg xmlns="http://www.w3.org/2000/svg">
<defs>
  <font id="Icons" horiz-adv-x="1456.6505078124999">
    <font-face font-family="Icons"
      units-per-em="1001" ascent="1001"
      descent="0" />
    <missing-glyph horiz-adv-x="0" />
    <glyph glyph-name="add"
      unicode="&#xE001;"
      horiz-adv-x="1001" d="M500.5 1001A500.5 500.5 0 1 1 1001 500.5A499.05324218749996 499.05324218749996 0 0 1 500.5 1001zM500.5 91.00888671875C273.007109375 91.00888671875 91.00888671875 273.0071093750001 91.00888671875 500.5S273.007109375 909.99111328125 500.5 909.99111328125S909.99111328125 727.992890625 909.99111328125 500.5S727.992890625 91.00888671875 500.5 91.00888671875zM682.4982226562499 545.99466796875H545.9946679687499V682.4982226562499C545.9946679687499 709.8693164062499 527.7928906249999 727.992890625 500.4999999999999 727.992890625S455.0053320312499 709.7911132812501 455.0053320312499 682.4982226562499V545.99466796875H318.50177734375C291.13068359375 545.99466796875 273.007109375 527.792890625 273.007109375 500.5S291.20888671875 455.0053320312501 318.50177734375 455.0053320312501H455.00533203125V318.5017773437501C455.00533203125 291.1306835937501 473.207109375 273.0071093750002 500.5 273.0071093750002S545.9946679687499 291.2088867187502 545.9946679687499 318.5017773437501V455.0053320312501H682.4982226562499C709.8693164062499 455.0053320312501 727.9928906249999 473.2071093750001 727.9928906249999 500.5000000000001S709.79111328125 545.99466796875 682.4982226562499 545.99466796875z" />
    <glyph glyph-name="analytics"
      unicode="&#xE002;"
      horiz-adv-x="1001" d="M83.208125 1001H0V0H1001V83.208125H83.208125zM666.91625 1001V917.791875H858.279296875L666.8380468749999 726.350625V500.5H441.69125L170.091796875 229.604375L228.97875 170.091796875L476.100625 417.213671875H750.75V691.94125L917.16625 858.279296875V667.463671875H1001V1001z" />
    <glyph glyph-name="arrow_down"
      unicode="&#xE003;"
      horiz-adv-x="1001" d="M914.8592578125 761.28787109375L500.5 346.8699609375001L86.17984375 761.3465234375001A50.538769531250004 50.538769531250004 0 1 1 14.780390625 689.8297656249999L464.8002734375 239.6534765624999H464.8002734375A50.441015625 50.441015625 0 0 1 536.2192773437499 239.6534765624999L986.219609375 689.8297656249999A50.499667968749996 50.499667968749996 0 1 1 914.8592578125 761.28787109375z" />
    <glyph glyph-name="arrow_next"
      unicode="&#xE004;"
      horiz-adv-x="1456.6505078124999" d="M1436.8064648437498 452.6787890625001L1003.3460937500003 19.80494140625A67.68480468749999 67.68480468749999 0 0 0 907.5472656250003 115.4669140625L1225.4038671875 432.8738476562501H67.72390625A67.62615234375001 67.62615234375001 0 1 0 67.72390625 568.1457031250001H1225.4038671875L907.56681640625 885.5330859375A67.68480468749999 67.68480468749999 0 0 0 1003.36564453125 981.19505859375L1436.8064648437498 548.3212109375A67.56750000000001 67.56750000000001 0 0 0 1436.8064648437498 452.6787890625001z" />
    <glyph glyph-name="arrow_prev"
      unicode="&#xE005;"
      horiz-adv-x="1456.6505078124999" d="M19.84404296875 548.3212109375L453.32396484375 981.19505859375A67.68480468749999 67.68480468749999 0 0 0 549.12279296875 885.5330859375L231.246640625 568.1261523437499H1388.9266015624999A67.62615234375001 67.62615234375001 0 1 0 1388.9266015624999 432.854296875H231.246640625L549.0836914062501 115.4669140625A67.68480468749999 67.68480468749999 0 0 0 453.2848632812501 19.80494140625L19.84404296875 452.6787890625001A67.56750000000001 67.56750000000001 0 0 0 19.84404296875 548.3212109375z" />
    <glyph glyph-name="arrow_sort_down"
      unicode="&#xE006;"
      horiz-adv-x="1001" d="M234.76578125 341.5912500000001A13.392285156249999 13.392285156249999 0 0 0 253.08486328125 354.0450976562501L420.1462890625 288.0416601562501V987.627265625A13.372734374999999 13.372734374999999 0 0 0 433.5190234375001 1001H567.441875A13.372734374999999 13.372734374999999 0 0 0 580.8146093749999 987.627265625V288.0612109375L747.8955859375 354.0646484375A13.372734374999999 13.372734374999999 0 0 0 763.41890625 333.4581249999999L511.0965234375 5.2200585937501A13.392285156249999 13.392285156249999 0 0 0 489.864375 5.2200585937501L237.5419921875 333.43857421875A13.372734374999999 13.372734374999999 0 0 0 234.76578125 341.5912500000001z" />
    <glyph glyph-name="arrow_sort_up"
      unicode="&#xE007;"
      horiz-adv-x="1001" d="M766.2146679687501 659.40875A13.392285156249999 13.392285156249999 0 0 0 747.8955859375001 646.9549023437501L580.83416015625 712.95833984375V13.3727343749999A13.372734374999999 13.372734374999999 0 0 0 567.441875 0H433.53857421875A13.372734374999999 13.372734374999999 0 0 0 420.16583984375 13.3727343749999V712.9387890625001L253.08486328125 646.9353515625A13.372734374999999 13.372734374999999 0 0 0 237.56154296875 667.541875L489.88392578125 995.77994140625A13.392285156249999 13.392285156249999 0 0 0 511.11607421875 995.77994140625L763.43845703125 667.5614257812499A13.372734374999999 13.372734374999999 0 0 0 766.2146679687501 659.40875z" />
    <glyph glyph-name="balance"
      unicode="&#xE008;"
      horiz-adv-x="1216.1954492187501" d="M451.8185546875 562.7105859375L371.0347265625 593.9918359375A36.325351562499996 36.325351562499996 0 1 1 344.7389257812501 526.99130859375L424.8971289062501 495.7100585937499A36.325351562499996 36.325351562499996 0 1 1 451.8185546875001 562.7105859374999zM675.3621875 111.2439453124999A61.36990234375 61.36990234375 0 0 0 595.81005859375 76.560859375L595.22353515625 76.7954687499999A62.5625 62.5625 0 1 0 676.066015625 112.9644140625Q675.7141015625 112.0846289062499 675.3621875 111.2439453124999zM461.2029296875 235.21544921875L139.33841796875 362.96025390625L268.96009765625 688.5785156249999L590.824609375 561.4984374999999zM1196.97703125 944.068125L1083.0155273437501 989.7778515625A151.53810546875 151.53810546875 0 0 1 885.5526367187501 906.55017578125Q885.0247656250001 905.279375 884.5359960937501 903.9890234375L632.1549609374999 267.845703125A129.87583984375001 129.87583984375001 0 0 1 544.4892578125 246.55490234375L671.5693359375 568.4194140625A36.325351562499996 36.325351562499996 0 0 1 651.52978515625 615.3412890625L262.0782226562501 769.9879687499999A36.325351562499996 36.325351562499996 0 0 1 214.6284765625 750.30033203125L214.4720703125 749.9484179687499L71.7513671875 389.8816796875001L47.95806640625 399.2660546875001A36.325351562499996 36.325351562499996 0 0 1 21.662265625 331.63990234375L468.10435546875 154.451171875L472.48373046875 152.49609375L483.7645312500001 148.11671875A134.31386718750002 134.31386718750002 0 1 1 699.8006640625001 240.787421875L952.123046875 877.06759765625A79.53257812499999 79.53257812499999 0 0 0 1054.96015625 922.58181640625L1056.07455078125 922.15169921875L1170.0360546875002 877.06759765625A36.325351562499996 36.325351562499996 0 0 1 1196.95748046875 944.068125z" />
    <glyph glyph-name="calendar"
      unicode="&#xE009;"
      horiz-adv-x="1104.9906054687501" d="M762.6564257812499 935.99365234375V1001H684.668359375V935.99365234375H420.341796875V1001H342.3341796875V935.99365234375H0V0H1104.9906054687501V935.99365234375zM342.31462890625 857.98603515625V792.9796875H420.341796875V858.0055859375H684.668359375V806.0005078125H762.6759765625V858.0055859375H1027.0025390624999V728.01244140625H78.0076171875V858.0055859375zM78.0076171875 78.0076171874999V650.00482421875H1027.0025390624999V78.0076171874999zM253.4954296875 311.9913671874999L383.508125 311.9913671874999L383.508125 181.9982226562499L253.4954296875 181.9982226562499L253.4954296875 311.9913671874999zM487.49873046875 311.9913671874999H617.4918749999999V181.9982226562499H487.49873046875V311.9913671874999zM721.5020312500001 311.9913671874999H851.49517578125V181.9982226562499H721.5020312500001V311.9913671874999zM487.49873046875 545.99466796875H617.4918749999999V416.0015234375001H487.49873046875V545.99466796875zM721.5020312500001 545.99466796875H851.49517578125V416.0015234375001H721.5020312500001V545.99466796875zM253.4954296875 545.99466796875L383.508125 545.99466796875L383.508125 416.0015234375L253.4954296875 416.0015234375L253.4954296875 545.99466796875z" />
    <glyph glyph-name="close"
      unicode="&#xE00A;"
      horiz-adv-x="1001" d="M589.0259374999999 500.5L982.6613671875 894.1354296875A62.5625 62.5625 0 0 1 894.1354296874999 982.6613671875L500.5 589.00638671875L106.84501953125 982.6613671875A62.5625 62.5625 0 0 1 18.3386328125 894.1354296875L411.99361328125 500.5L18.3386328125 106.8450195312499A62.5625 62.5625 0 1 1 106.8645703125 18.3386328125L500.5 411.9936132812501L894.1354296874999 18.3386328125A62.5625 62.5625 0 0 1 982.6613671875 106.8645703125z" />
    <glyph glyph-name="delivery"
      unicode="&#xE00B;"
      horiz-adv-x="1001" d="M309.0196484375 475.4358984375H693.91587890625A27.37109375 27.37109375 0 0 1 693.91587890625 529.49380859375H309.0196484375A27.37109375 27.37109375 0 1 1 309.0196484375 475.4358984375zM309.0196484375 681.87259765625H456.1979296875A27.37109375 27.37109375 0 0 1 456.1979296875 736.61478515625H309.0196484375A27.37109375 27.37109375 0 1 1 309.0196484375 682.556875zM309.0196484375 367.320078125H693.91587890625A27.37109375 27.37109375 0 0 1 693.91587890625 421.37798828125H309.0196484375A27.37109375 27.37109375 0 1 1 309.0196484375 367.320078125zM309.0196484375 258.55908203125H693.91587890625A27.37109375 27.37109375 0 0 1 693.91587890625 312.6169921875H309.0196484375A27.37109375 27.37109375 0 1 1 309.0196484375 258.55908203125zM834.60330078125 81.409453125H167.041875V918.28064453125H834.60330078125zM875.62083984375 999.69009765625L125.359609375 1001A41.056640625 41.056640625 0 0 1 84.30296875 959.943359375L85.61287109375 40.3528125A40.587421875000004 40.587421875000004 0 0 1 126.0243359375 0H875.62083984375A40.724277343749996 40.724277343749996 0 0 1 916.67748046875 40.3723632812499V958.67255859375A41.056640625 41.056640625 0 0 1 875.62083984375 999.69009765625z" />
    <glyph glyph-name="equipment"
      unicode="&#xE00C;"
      horiz-adv-x="1126.125" d="M67.5675 68.193125V733.858125C67.5675 762.01125 90.09 785.159375 117.6175 785.159375H462.336875A51.00798828124999 51.00798828124999 0 0 0 513.0124999999999 733.858125V718.843125A33.646894531250005 33.646894531250005 0 0 1 546.7962499999999 685.059375H872.1212499999998C899.6487499999998 685.059375 922.1712499999998 661.91125 922.1712499999998 633.7581250000001V67.5674999999999zM462.336875 853.3525H203.95375V882.13125A50.323710937499996 50.323710937499996 0 0 0 254.00375 932.806875H598.723125A50.460566406249995 50.460566406249995 0 0 0 649.3987500000001 882.13125V867.11625A34.174765625000006 34.174765625000006 0 0 1 683.1825000000001 832.7068750000001H1008.5075A50.323710937499996 50.323710937499996 0 0 0 1058.5575000000001 782.03125V215.8406249999999H989.73875V635.0093750000001A118.86874999999999 118.86874999999999 0 0 1 871.4956250000001 753.878125H579.32875A118.86874999999999 118.86874999999999 0 0 1 462.336875 853.9781250000001zM1007.803671875 900.9H715.7149999999999A118.86874999999999 118.86874999999999 0 0 1 598.723125 1001H254.629375A118.86874999999999 118.86874999999999 0 0 1 136.38625 882.13125V853.3525H117.6175A118.86874999999999 118.86874999999999 0 0 1 0 734.48375V33.7837500000001A33.646894531250005 33.646894531250005 0 0 1 33.78375 0H956.033203125A34.174765625000006 34.174765625000006 0 0 1 989.816953125 34.4093750000001V147.6474999999999H1092.419453125A33.646894531250005 33.646894531250005 0 0 1 1126.125 181.43125V782.03125A118.86874999999999 118.86874999999999 0 0 1 1007.881875 900.9z" />
    <glyph glyph-name="exit"
      unicode="&#xE00D;"
      horiz-adv-x="1001" d="M744.884765625 745.2757812499999A45.76837890625 45.76837890625 0 0 1 680.1716796874999 680.5626953125L814.8765624999999 546.4443359375H257.6792968749999A45.748828124999996 45.748828124999996 0 1 1 257.6792968749999 454.9466796875H815.267578125L680.5626953125001 320.8283203125001A45.76837890625 45.76837890625 0 0 1 745.2757812500001 256.115234375L957.20625 468.6322265625A45.436015624999996 45.436015624999996 0 0 1 957.20625 532.954296875zM470.29404296875 0.7820312499999A45.3578125 45.3578125 0 0 1 470.29404296875 91.4976562499999H121.50810546875V910.284375H470.29404296875A45.3578125 45.3578125 0 0 1 470.29404296875 1001H76.248046875A45.396914062499995 45.396914062499995 0 0 1 30.890234375 955.6421875V45.3578125A45.514218750000005 45.514218750000005 0 0 1 76.248046875 0z" />
    <glyph glyph-name="images"
      unicode="&#xE00E;"
      horiz-adv-x="1305.2492578125" d="M1179.0294140624999 844.59375H1149.7032421874999V873.919921875C1149.7032421874999 943.34474609375 1093.5729492187497 999.84650390625 1024.5782421874999 999.84650390625H126.21984375C57.22513671875 999.92470703125 1.07529296875 943.42294921875 1.07529296875 873.919921875V282.41103515625C1.07529296875 212.9862109375 57.22513671875 156.484453125 126.20029296875 156.484453125H155.52646484375V127.080078125C155.52646484375 57.65525390625 211.67630859375 1.1534960937501 280.6514648437501 1.1534960937501H1179.0294140624999C1248.0436718749997 1.1534960937501 1304.1544140624999 57.6357031250001 1304.1544140624999 127.080078125V718.5889648437501C1304.1739648437501 788.0137890625 1248.02412109375 844.59375 1179.0294140624999 844.59375zM1211.9529296875 127.080078125A33.040820312499996 33.040820312499996 0 0 0 1179.0294140624999 93.84375H280.69056640625A33.040820312499996 33.040820312499996 0 0 0 247.7475 127.080078125V718.5889648437501A33.040820312499996 33.040820312499996 0 0 0 280.69056640625 751.7275390625H1179.0294140624999A33.040820312499996 33.040820312499996 0 0 0 1211.9529296875 718.5889648437501V127.080078125zM93.296328125 282.41103515625V873.919921875A33.040820312499996 33.040820312499996 0 0 0 126.21984375 907.15625H1024.5586914062499A33.040820312499996 33.040820312499996 0 0 0 1057.48220703125 873.919921875V844.59375H280.69056640625C211.67630859375 844.59375 155.56556640625 788.11154296875 155.56556640625 718.6671679687499V249.4484179687501H126.23939453125A33.040820312499996 33.040820312499996 0 0 0 93.296328125 282.41103515625zM1179.0294140624999 0H280.69056640625C211.1484375 0 154.451171875 56.9709765625 154.451171875 127.080078125V155.40916015625H126.21984375C56.697265625 155.40916015625 0 212.38013671875 0 282.41103515625V873.919921875C0 944.0290234375 56.697265625 1001 126.21984375 1001H1024.5586914062499C1094.15947265625 1001 1150.7785351562497 944.0290234375 1150.7785351562497 873.919921875V845.59083984375H1179.0098632812499C1248.61064453125 845.59083984375 1305.2297070312497 788.61986328125 1305.2297070312497 718.51076171875V127.080078125C1305.2492578125 56.9709765625 1248.6301953124998 0 1179.0294140624999 0zM126.21984375 998.82986328125C57.81166015625 998.82986328125 2.1505859375 942.83642578125 2.1505859375 873.919921875V282.41103515625C2.1505859375 213.572734375 57.81166015625 157.579296875 126.21984375 157.579296875H156.62130859375V127.080078125C156.62130859375 58.2417773437501 212.2823828125 2.2483398437499 280.69056640625 2.2483398437499H1179.0294140624999C1247.4571484374999 2.2483398437499 1303.098671875 58.24177734375 1303.098671875 127.080078125V718.5889648437501C1303.098671875 787.427265625 1247.4375976562499 843.420703125 1179.0294140624999 843.420703125H1148.62794921875V873.919921875C1148.62794921875 942.75822265625 1092.9668749999998 998.75166015625 1024.5586914062499 998.75166015625H126.21984375zM1179.0294140624999 92.7880078124999H280.69056640625A34.155214843749995 34.155214843749995 0 0 0 246.67220703125 127.0018749999999V718.5889648437501A34.155214843749995 34.155214843749995 0 0 0 280.69056640625 752.8028320312501H1179.0294140624999A34.155214843749995 34.155214843749995 0 0 0 1213.0477734375 718.5889648437501V127.080078125A34.155214843749995 34.155214843749995 0 0 0 1179.0294140624999 92.7880078124999zM280.69056640625 750.6326953125A31.985078124999998 31.985078124999998 0 0 1 248.82279296875 718.5889648437501V127.080078125A31.985078124999998 31.985078124999998 0 0 1 280.69056640625 95.03634765625H1179.0294140624999A31.985078124999998 31.985078124999998 0 0 1 1210.87763671875 127.080078125V718.5889648437501A31.985078124999998 31.985078124999998 0 0 1 1179.0294140625 750.6326953125zM156.62130859375 248.1776171875H126.21984375A34.155214843749995 34.155214843749995 0 0 0 92.201484375 282.391484375V873.919921875A34.155214843749995 34.155214843749995 0 0 0 126.21984375 908.1337890625H1024.5586914062499A34.155214843749995 34.155214843749995 0 0 0 1058.5770507812501 873.919921875V843.420703125H280.69056640625C212.26283203125 843.420703125 156.62130859375 787.427265625 156.62130859375 718.5889648437501V248.1971679687502zM126.21984375 906.06140625A31.985078124999998 31.985078124999998 0 0 1 94.37162109375 873.919921875V282.41103515625A32.004628906250005 32.004628906250005 0 0 1 126.23939453125 250.3673046875H154.451171875V718.5889648437501C154.451171875 788.61986328125 211.1484375 845.6690429687501 280.671015625 845.6690429687501H1056.42646484375V873.919921875A31.985078124999998 31.985078124999998 0 0 1 1024.5782421875 905.96365234375H126.21984375zM1080.66943359375 231.2661914062501L1050.32662109375 261.7849609375L903.4025 409.60841796875A32.78666015625 32.78666015625 0 0 1 856.8325390625001 409.60841796875L773.3507031250001 325.54005859375L617.3941210937502 482.4546289062499A32.78666015625 32.78666015625 0 0 1 570.8241601562502 482.4546289062499L338.99099609375 249.2724609375L321.08248046875 231.246640625A33.236328125 33.236328125 0 0 1 321.08248046875 184.324765625L339.714375 165.57556640625A32.806210937500005 32.806210937500005 0 0 1 386.2843359375 165.57556640625L423.29396484375 202.72205078125L469.3947070312499 249.1160546875001L570.8828125 351.30798828125A32.78666015625 32.78666015625 0 0 0 617.4527734375 351.30798828125L718.86267578125 249.2724609375L764.9634179687499 202.8784570312499L801.973046875 165.7319726562499A32.806210937500005 32.806210937500005 0 0 1 848.5430078124999 165.7319726562499L867.1749023437499 184.4811718749999A33.236328125 33.236328125 0 0 1 867.1749023437499 231.4030468749999L849.2663867187499 249.4288671874999L838.5525585937501 260.025390625L880.1175195312501 301.8445117187501L932.35720703125 249.29201171875L978.45794921875 202.8980078125L1015.467578125 165.7515234375A32.82576171875 32.82576171875 0 0 1 1062.0375390625 165.7515234375L1080.66943359375 184.5007226562499A33.236328125 33.236328125 0 0 1 1082.878671875 228.744140625Q1081.84248046875 230.07359375 1080.66943359375 231.2661914062501zM825.2189257812499 154.8617382812499A34.174765625000006 34.174765625000006 0 0 0 819.07998046875 155.4287109375A33.744648437500004 33.744648437500004 0 0 0 801.17146484375 164.8912890624999L616.6316406249999 350.6237109375A31.7113671875 31.7113671875 0 0 1 571.6648437499999 350.6237109375L387.1445703125 164.8912890624999A33.72509765625 33.72509765625 0 0 0 369.2360546875 155.4287109375A34.25296875 34.25296875 0 0 0 356.9581640625 155.4287109375A33.744648437500004 33.744648437500004 0 0 0 339.0496484375 164.8912890624999L320.41775390625 183.6404882812499A34.018359374999996 34.018359374999996 0 0 0 310.83787109375 202.7416015624999A34.507128906249996 34.507128906249996 0 0 0 320.41775390625 232.0677734374999L570.0616796874999 483.2953125A33.86195312499999 33.86195312499999 0 0 0 618.1566015625 483.2953125L773.350703125 327.1432226562499L856.07005859375 410.3708984375A33.86195312499999 33.86195312499999 0 0 0 904.16498046875 410.3708984375L1081.4319140625 232.0286718749999C1082.2139453124998 231.246640625 1082.9764257812499 230.38640625 1083.7193554687499 229.4870703124999A34.233417968750004 34.233417968750004 0 0 0 1081.4319140625 183.6209375L1062.80001953125 164.8717382812499A33.881503906249996 33.881503906249996 0 0 0 1038.75255859375 154.8617382812499H1038.75255859375A33.881503906249996 33.881503906249996 0 0 0 1014.7050976562502 164.8717382812499L880.1175195312502 300.28044921875L840.07751953125 260.025390625L867.8982812500001 232.04822265625A34.507128906249996 34.507128906249996 0 0 0 877.4781640625 202.72205078125A34.03791015625 34.03791015625 0 0 0 867.8982812500001 183.6209375000001L849.2663867187501 164.87173828125A33.744648437500004 33.744648437500004 0 0 0 831.3578710937501 155.4091601562501A34.448476562500005 34.448476562500005 0 0 0 825.2189257812499 154.8617382812499zM594.109140625 362.10001953125A33.685996093750006 33.685996093750006 0 0 0 618.1566015625 352.0704687499999L802.69642578125 166.3380468749999A31.594062500000003 31.594062500000003 0 0 1 819.4709960937499 157.48154296875A31.926425781249996 31.926425781249996 0 0 1 830.98640625 157.48154296875A31.594062500000003 31.594062500000003 0 0 1 847.7609765624999 166.3380468749999L866.3928710937498 185.08724609375A31.906875 31.906875 0 0 1 875.3666796874998 202.9762109374999A32.3369921875 32.3369921875 0 0 1 866.3928710937498 230.3473046874999L837.0666992187498 259.868984375L880.0784179687498 303.21306640625L1016.19095703125 166.3575976562499A31.672265624999998 31.672265624999998 0 0 1 1031.94888671875 157.71615234375A31.730917968750003 31.730917968750003 0 0 1 1061.27505859375 166.3575976562499L1079.9069531249997 185.1067968749999A32.08283203125 32.08283203125 0 0 1 1082.0575390625 228.1185156249999C1081.3732617187497 228.9591992187499 1080.6498828124998 229.7607812499998 1079.9069531249997 230.5037109375L902.6400195312498 408.8459375A31.7113671875 31.7113671875 0 0 1 857.6732226562498 408.8459375L773.4289062499998 324.0933007812499L616.6316406249999 481.7508007812501A31.7113671875 31.7113671875 0 0 1 571.6648437499999 481.7508007812501L321.8449609375 230.4841601562501A32.31744140625 32.31744140625 0 0 1 312.87115234375 203.11306640625A31.8677734375 31.8677734375 0 0 1 321.8449609375 185.2241015625L340.47685546875 166.4749023437501A31.594062500000003 31.594062500000003 0 0 1 357.25142578125 157.6183984375001A31.945976562499997 31.945976562499997 0 0 1 368.7668359375 157.6183984375001A31.594062500000003 31.594062500000003 0 0 1 385.54140625 166.4749023437501L570.0616796875 352.2073242187501A33.685996093750006 33.685996093750006 0 0 0 594.109140625 362.10001953125zM1057.48220703125 693.72037109375A125.73107421875 125.73107421875 0 0 1 1011.1468554687498 702.51822265625C941.0768554687498 702.51822265625 884.0667773437499 645.15623046875 884.0667773437499 574.6756640625S941.07685546875 446.83310546875 1011.1468554687498 446.83310546875A125.7115234375 125.7115234375 0 0 1 1057.48220703125 455.63095703125A128.13582031250002 128.13582031250002 0 0 1 1057.48220703125 693.739921875zM1011.1468554687502 539.6015625A35.074101562500005 35.074101562500005 0 1 0 1045.966796875 574.6756640625A34.956796875 34.956796875 0 0 0 1011.1468554687502 539.6015625zM1011.1664062500003 445.7578125C940.5098828125002 445.7578125 883.01103515625 503.5890234375 883.01103515625 574.6952148437499S940.49033203125 703.6326171874999 1011.1664062500003 703.6326171874999A126.55220703125002 126.55220703125002 0 0 0 1057.8927734375 694.7565625A129.21111328125 129.21111328125 0 0 0 1057.8927734375 454.6338671875A126.57175781249998 126.57175781249998 0 0 0 1011.1664062500003 445.7578125zM1011.1664062500003 701.46248046875C941.6829296875 701.46248046875 885.1616210937501 644.5892578124999 885.1616210937501 574.6952148437499S941.6829296875002 447.92794921875 1011.1664062500003 447.92794921875A124.3820703125 124.3820703125 0 0 1 1057.1107421875001 456.64759765625A127.080078125 127.080078125 0 0 1 1057.1107421875001 692.72328125A124.42117187500001 124.42117187500001 0 0 1 1011.1664062500003 701.4429296875zM1011.1664062500003 538.5458203124999A36.14939453125 36.14939453125 0 1 0 1047.1007421875001 574.6952148437499A36.07119140625 36.07119140625 0 0 0 1011.1468554687502 538.5262695312499zM1011.1664062500003 608.6744726562499A33.979257812499995 33.979257812499995 0 1 1 1044.95015625 574.6952148437499A33.920605468750004 33.920605468750004 0 0 1 1011.1468554687502 608.654921875z" />
    <glyph glyph-name="more_horizontal"
      unicode="&#xE00F;"
      horiz-adv-x="1001" d="M778.5512109375001 500.5A111.22439453125 111.73271484375 0 0 1 1001 500.5A111.22439453125 111.73271484375 0 0 1 778.5512109375001 500.5M389.2756054687501 500.5A111.22439453125 111.73271484375 0 0 1 611.72439453125 500.5A111.22439453125 111.73271484375 0 0 1 389.2756054687501 500.5M0 500.5A111.22439453125 111.73271484375 0 0 1 222.4487890625 500.5A111.22439453125 111.73271484375 0 0 1 0 500.5" />
    <glyph glyph-name="more_vertical"
      unicode="&#xE010;"
      horiz-adv-x="1001" d="M388.76728515625 889.77560546875A111.73271484375 111.22439453125 0 0 1 612.2327148437499 889.77560546875A111.73271484375 111.22439453125 0 0 1 388.76728515625 889.77560546875M388.76728515625 500.5A111.73271484375 111.22439453125 0 0 1 612.2327148437499 500.5A111.73271484375 111.22439453125 0 0 1 388.76728515625 500.5M388.76728515625 111.22439453125A111.73271484375 111.22439453125 0 0 1 612.2327148437499 111.22439453125A111.73271484375 111.22439453125 0 0 1 388.76728515625 111.22439453125" />
    <glyph glyph-name="order"
      unicode="&#xE011;"
      horiz-adv-x="1364.409921875" d="M1284.3690234375001 78.7114453125H1098.0891796874998V264.4438671875H1284.38857421875zM589.0454882812501 734.6792578125V920.97865234375H775.3448828125V735.24623046875zM775.3448828125 264.3461132812501V78.61369140625H589.0454882812501V264.3461132812501zM266.3207421875001 264.3461132812501V78.61369140625H80.02134765625V264.3461132812501zM1231.24955078125 343.7222851562501V538.5458203125H722.2058593749999V655.3030859375H855.36623046875V1001H509.024140625V655.9678125H642.1845117187501V539.2105468750001H133.16037109375V344.38701171875H0V0H346.34208984375V344.38701171875H213.103515625V459.834375H642.1845117187501V344.38701171875H509.024140625V0H855.36623046875V344.38701171875H722.2058593749999V459.834375H1151.2086523437501V344.38701171875H1018.04828125V0H1364.409921875V344.38701171875z" />
    <glyph glyph-name="photo"
      unicode="&#xE012;"
      horiz-adv-x="1216.3714062499998" d="M607.7555859375 159.55392578125A268.99919921875 268.99919921875 0 1 0 607.7555859375 697.5523242187501H607.7555859375A270.30910156249996 270.30910156249996 0 0 0 878.924921875 428.162109375H878.924921875A270.30910156249996 270.30910156249996 0 0 0 608.6158203125 159.55392578125zM1141.3941601562499 857.1258007812501H905.96365234375L766.390625 987.92052734375A47.09783203124999 47.09783203124999 0 0 1 733.3107031249999 1001H483.94048828125A47.078281249999996 47.078281249999996 0 0 1 451.623046875 987.92052734375L312.108671875 857.1258007812501H74.996796875A74.99679687499999 74.99679687499999 0 0 1 0 782.12900390625V74.9772460937501A74.97724609375001 74.97724609375001 0 0 1 74.996796875 0H1141.3941601562499A74.97724609375001 74.97724609375001 0 0 1 1216.3909570312499 74.9772460937501V782.12900390625A74.99679687499999 74.99679687499999 0 0 1 1141.3941601562499 856.32421875zM435.982421875 428.162109375C435.982421875 522.3382226562501 512.71923828125 598.25390625 607.7555859375 598.25390625S779.5287500000001 522.3968749999999 779.5287500000001 428.162109375S702.7919335937501 258.0703125 607.7555859375 258.0703125A170.9129296875 170.9129296875 0 0 0 435.982421875 428.162109375z" />
    <glyph glyph-name="projects"
      unicode="&#xE013;"
      horiz-adv-x="1001" d="M309.0196484375 475.4358984375H693.91587890625A27.37109375 27.37109375 0 0 1 693.91587890625 529.49380859375H309.0196484375A27.37109375 27.37109375 0 1 1 309.0196484375 475.4358984375zM309.0196484375 681.87259765625H456.1979296875A27.37109375 27.37109375 0 0 1 456.1979296875 736.61478515625H309.0196484375A27.37109375 27.37109375 0 1 1 309.0196484375 682.556875zM309.0196484375 367.320078125H693.91587890625A27.37109375 27.37109375 0 0 1 693.91587890625 421.37798828125H309.0196484375A27.37109375 27.37109375 0 1 1 309.0196484375 367.320078125zM309.0196484375 258.55908203125H693.91587890625A27.37109375 27.37109375 0 0 1 693.91587890625 312.6169921875H309.0196484375A27.37109375 27.37109375 0 1 1 309.0196484375 258.55908203125zM834.60330078125 81.409453125H167.041875V918.28064453125H834.60330078125zM875.62083984375 999.69009765625L125.359609375 1001A41.056640625 41.056640625 0 0 1 84.30296875 959.943359375L85.61287109375 40.3528125A40.587421875000004 40.587421875000004 0 0 1 126.0243359375 0H875.62083984375A40.724277343749996 40.724277343749996 0 0 1 916.67748046875 40.3723632812499V958.67255859375A41.056640625 41.056640625 0 0 1 875.62083984375 999.69009765625z" />
    <glyph glyph-name="projectsGroups"
      unicode="&#xE014;"
      horiz-adv-x="1001" d="M458.661328125 372.794296875H760.2516796875A21.740468749999994 21.740468749999994 0 0 1 760.2516796875 415.180390625H458.661328125A21.740468749999994 21.740468749999994 0 1 1 458.661328125 372.794296875zM458.661328125 533.736328125H573.8740820312499A21.740468749999994 21.740468749999994 0 0 1 573.8740820312499 576.748046875H458.661328125A21.740468749999994 21.740468749999994 0 1 1 458.661328125 534.361953125zM458.661328125 287.396484375H760.2516796875A21.740468749999994 21.740468749999994 0 0 1 760.2516796875 329.782578125H458.661328125A21.740468749999994 21.740468749999994 0 1 1 458.661328125 287.396484375zM458.661328125 202.1550781249999H760.2516796875A21.740468749999994 21.740468749999994 0 0 1 760.2516796875 245.166796875H458.661328125A21.740468749999994 21.740468749999994 0 1 1 458.661328125 202.780703125zM870.009765625 64.1265625H348.33626953125V718.9604296875H870.5767382812501zM284.20970703125 751.0237109375V173.3567773437501H238.51953125V828.19064453125H761.3074218749999V782.5395703125H315.7255664062501A32.063281249999996 32.063281249999996 0 0 1 284.20970703125 751.0237109375zM174.9794921875 859.70650390625V282.5869921875001H129.32841796875V937.420859375H652.1163085937499V891.76978515625H206.4953515625A32.063281249999996 32.063281249999996 0 0 1 174.9794921875 860.234375zM902.09259765625 782.5395703125H824.9256640625V860.234375A32.063281249999996 32.063281249999996 0 0 1 792.8623828125001 891.750234375H715.69544921875V968.93671875A32.063281249999996 32.063281249999996 0 0 1 683.6321679687501 1001H98.35998046875A32.063281249999996 32.063281249999996 0 0 1 66.29669921875 968.93671875V250.5237109375001A32.12193359375 32.12193359375 0 0 1 98.35998046875 218.4604296875H174.4320703125V141.2934960937499A31.535410156250002 31.535410156250002 0 0 1 205.9479296875 109.7776367187499H283.66228515625V32.6107031249999C283.66228515625 14.6826367187499 297.7975 0 315.1781445312501 0H902.64001953125A32.591152343750004 32.591152343750004 0 0 1 934.70330078125 32.610703125V751.0237109375A32.063281249999996 32.063281249999996 0 0 1 902.64001953125 782.5395703125z" />
    <glyph glyph-name="push"
      unicode="&#xE015;"
      horiz-adv-x="1001" d="M750.1634765625 544.7238671875A31.496308593749998 31.496308593749998 0 0 1 721.423828125 563.0625H595.18443359375V969.71875A31.43765625 31.43765625 0 0 1 563.6294726562501 1001H437.3705273437501A31.43765625 31.43765625 0 0 1 405.81556640625 969.71875V563.0625H279.576171875A31.613613281250007 31.613613281250007 0 0 1 250.85607421875 544.7238671875A30.98798828125 30.98798828125 0 0 1 255.8415234375001 511.19427734375L476.7653515625 260.9442773437501A31.672265624999998 31.672265624999998 0 0 1 524.2346484375 260.9442773437501L745.1584765625 511.1942773437501A30.9684375 30.9684375 0 0 1 750.1634765625 544.7238671875zM847.7023242187499 312.8125V125.125H153.29767578125V312.8125H27.05828125V62.5625A62.836210937500006 62.836210937500006 0 0 1 90.18775390625 0H910.81224609375A62.797109375 62.797109375 0 0 1 973.94171875 62.5625V312.8125z" />
    <glyph glyph-name="question"
      unicode="&#xE016;"
      horiz-adv-x="1001" d="M429.00279296875 261.0029296875A71.49720703125 71.49720703125 0 0 1 571.99720703125 261.0029296875A71.49720703125 71.49720703125 0 0 1 429.00279296875 261.0029296875M500.5 1001C223.895546875 1001 0 777.1435546875 0 500.5S223.8564453125 0 500.5 0S1001 223.8564453125 1001 500.5S777.1435546875 1001 500.5 1001zM500.5 78.203125A422.296875 422.296875 0 1 0 922.796875 500.5A422.06226562499995 422.06226562499995 0 0 0 500.5 78.203125zM500.5 749.7724609375A156.58220703125 156.58220703125 0 0 1 344.09375 593.3662109375A39.1015625 39.1015625 0 0 1 422.296875 593.3662109375A78.203125 78.203125 0 1 0 500.5 515.1630859375A39.1015625 39.1015625 0 0 1 461.3984375 476.0615234375V378.3076171875A39.1015625 39.1015625 0 0 1 539.6015625 378.3076171875V441.84765625A156.40625 156.40625 0 0 1 500.5 749.7724609375z" />
    <glyph glyph-name="search"
      unicode="&#xE017;"
      horiz-adv-x="1001" d="M422.16001953125 241.19798828125C235.2545507812501 241.19798828125 83.7164453125 392.7751953125 83.7164453125 579.7588671875S235.25455078125 918.31974609375 422.16001953125 918.31974609375S760.525390625 766.7425390625 760.525390625 579.7588671875S609.0850390625001 241.19798828125 422.16001953125 241.19798828125zM988.95671875 71.10619140625L748.09109375 311.9913671874999C895.5821874999999 492.30822265625 869.01267578125 758.08154296875 688.7740234375 905.6312890625S242.84025390625 1026.59197265625 95.34916015625 846.2751171875S-25.59197265625 400.18494140625 154.66623046875 252.6547460937501A421.59304687499997 421.59304687499997 0 0 1 688.7740234375 252.6547460937501L929.6396484375 12.3951953124999A41.701816406249996 41.701816406249996 0 1 1 988.95671875 71.0475390624999z" />
    <glyph glyph-name="smile_bad"
      unicode="&#xE018;"
      horiz-adv-x="1001" d="M854.58419921875 854.5450976562499C659.330546875 1049.876953125 341.64990234375 1049.876953125 146.4353515625 854.58419921875S-48.79875 341.669453125 146.4353515625 146.41580078125S659.3109960937501 -48.7987500000002 854.54509765625 146.41580078125S1049.876953125 659.330546875 854.58419921875 854.5450976562499zM799.9397656250001 201.0406835937499C634.83341796875 35.9343359375 366.16658203125 35.91478515625 201.0406835937501 201.0406835937499S35.9147851562501 634.87251953125 201.0406835937501 799.9788671875S634.8138671875001 965.104765625 799.9593164062501 799.9788671875S965.04611328125 366.14703125 799.9397656250001 201.0406835937499zM726.898046875 302.567890625A28.30953125 28.30953125 0 0 0 674.9320703125001 280.1040429687499C647.5609765625001 343.233515625 583.0433984375001 384.0359960937499 510.51 384.0359960937499C436.21703125 384.0359960937499 371.32798828125 343.2726171874998 345.12994140625 280.1822460937499A28.30953125 28.30953125 0 1 0 292.8316015625 301.88361328125C327.84705078125 386.18658203125 413.303515625 440.69416015625 510.51 440.69416015625C605.683203125 440.6550585937501 690.63134765625 386.4602929687501 726.898046875 302.567890625zM313.73138671875 636.026015625A58.51548828125 58.51548828125 0 1 0 372.26642578125 577.4909765625A58.535039062500005 58.535039062500005 0 0 0 313.73138671875 636.026015625zM579.094140625 636.026015625A58.535039062500005 58.535039062500005 0 1 0 637.6291796875 577.4909765625A58.55458984375 58.55458984375 0 0 0 579.094140625 636.026015625z" />
    <glyph glyph-name="smile_good"
      unicode="&#xE019;"
      horiz-adv-x="1001" d="M854.58419921875 854.5450976562499C659.330546875 1049.876953125 341.64990234375 1049.876953125 146.4353515625 854.58419921875S-48.79875 341.669453125 146.4353515625 146.41580078125S659.3109960937501 -48.7987500000002 854.5646484375001 146.41580078125S1049.876953125 659.330546875 854.58419921875 854.5450976562499zM799.9397656250001 201.0406835937499C634.83341796875 35.9343359375 366.16658203125 35.91478515625 201.0406835937501 201.0406835937499S35.9147851562501 634.87251953125 201.0406835937501 799.9788671875S634.8138671875001 965.104765625 799.9593164062501 799.9788671875S965.0656640625 366.14703125 799.9397656250001 201.0406835937499zM313.7118359375001 636.026015625A58.51548828125 58.51548828125 0 1 0 372.246875 577.4909765625A58.535039062500005 58.535039062500005 0 0 0 313.7118359375001 636.026015625zM579.0941406250001 636.026015625A58.535039062500005 58.535039062500005 0 1 0 637.64873046875 577.4909765625A58.55458984375 58.55458984375 0 0 0 579.094140625 636.026015625zM717.513671875 396.31388671875C681.24697265625 312.44103515625 596.298828125 258.24626953125 501.125625 258.24626953125C403.89958984375 258.24626953125 318.46267578125 312.71474609375 283.4472265625 397.05681640625A28.30953125 28.30953125 0 1 0 335.74556640625 418.75818359375C361.9631640625 355.64826171875 426.8717578125 314.90443359375 501.125625 314.90443359375C573.698125 314.90443359375 638.23525390625 355.68736328125 665.5476953125 418.8363867187501A28.30953125 28.30953125 0 0 0 717.513671875 396.31388671875z" />
    <glyph glyph-name="smile_neutral"
      unicode="&#xE01A;"
      horiz-adv-x="1001" d="M854.5646484375001 146.4549023437501C1049.7987500000002 341.6890039062501 1049.7791992187501 659.35009765625 854.5646484375001 854.54509765625S341.6303515625001 1049.876953125 146.41580078125 854.58419921875S-48.876953125 341.669453125 146.4353515625 146.39625S659.3109960937501 -48.876953125 854.5646484375001 146.4549023437501zM201.04068359375 799.95931640625C366.14703125 965.0656640625 634.8138671875 965.08521484375 799.95931640625 799.95931640625S965.0461132812497 366.1665820312501 799.95931640625 201.0602343750001S366.1665820312499 35.9343359375001 201.060234375 201.0602343750001S35.91478515625 634.85296875 201.04068359375 799.95931640625zM270.40685546875 606.308828125H396.6071484375001A29.697636718749997 29.697636718749997 0 1 1 396.6071484375001 665.7041015625H270.40685546875A29.697636718749997 29.697636718749997 0 1 1 270.40685546875 606.308828125zM604.35375 606.308828125H730.5540429687501A29.697636718749997 29.697636718749997 0 1 1 730.5540429687501 665.7041015625H604.35375A29.697636718749997 29.697636718749997 0 0 1 604.35375 606.308828125zM287.1227734375001 330.62326171875A32.845312500000006 32.845312500000006 0 0 1 319.94853515625 297.7975H681.0514648437501A32.82576171875 32.82576171875 0 1 1 681.0514648437501 363.46857421875H319.94853515625A32.82576171875 32.82576171875 0 0 1 287.1227734375001 330.62326171875z" />
    <glyph glyph-name="status_process"
      unicode="&#xE01B;"
      horiz-adv-x="1001" d="M500.5 1001C224.521171875 1001 0 776.4788281250001 0 500.5S224.521171875 0 500.5 0S1001 224.5211718749999 1001 500.5S776.4788281250001 1001 500.5 1001zM257.835703125 424.66251953125A75.83748046875 75.83748046875 0 1 0 333.6536328125 500.5A75.91568359374999 75.91568359374999 0 0 0 257.835703125 424.66251953125zM500.5 424.66251953125A75.83748046875 75.83748046875 0 1 0 576.3179296874999 500.5A75.91568359374999 75.91568359374999 0 0 0 500.5 424.66251953125zM743.164296875 424.66251953125A75.83748046875 75.83748046875 0 1 0 819.0017773437501 500.5A75.91568359374999 75.91568359374999 0 0 0 743.164296875 424.66251953125z" />
    <glyph glyph-name="status_success"
      unicode="&#xE01C;"
      horiz-adv-x="1001" d="M500.5 1001C224.521171875 1001 0 776.4788281250001 0 500.5S224.521171875 0 500.5 0S1001 224.5211718749999 1001 500.5S776.4788281250001 1001 500.5 1001zM787.896484375 585.037578125L473.44171875 270.6023632812501A70.79337890625 70.79337890625 0 0 0 373.34171875 270.6023632812501L213.0253125 430.9187695312501A70.77382812500001 70.77382812500001 0 1 0 313.1253125 531.01876953125L423.33306640625 420.83056640625L687.7769335937501 685.137578125A70.79337890625 70.79337890625 0 0 0 787.87693359375 585.037578125z" />
    <glyph glyph-name="status_warning"
      unicode="&#xE01D;"
      horiz-adv-x="1001" d="M500.5 1001C224.07150390625 1001 0 776.9089453125 0 500.5S224.07150390625 0 500.5 0S1001 224.07150390625 1001 500.5S776.9089453125 1001 500.5 1001zM500.5 250.25A62.5625 62.5625 0 1 0 563.0625 312.8125A62.5625 62.5625 0 0 0 500.5 250.25zM563.0625 469.21875H437.9375L406.65625 719.46875A31.28125 31.28125 0 0 0 437.9375 750.75H563.0625A31.28125 31.28125 0 0 0 594.34375 719.46875z" />
    <glyph glyph-name="stock"
      unicode="&#xE01E;"
      horiz-adv-x="1001" d="M922.796875 78.203125H852.1012499999999V500.5A38.78875 38.78875 0 0 1 813.938125 539.9143750000001H187.6875A38.78875 38.78875 0 0 1 148.273125 501.77080078125Q148.273125 501.14517578125 148.273125 500.5V78.203125H78.203125V635.5763476562499L500.5 915.15251953125L922.796875 635.5763476562499zM773.8981249999999 387.2227734375H227.101875V461.6721484375H774.52375zM773.8981249999999 232.7716015625H227.101875V309.0196484375H774.52375zM773.8981249999999 78.3204296875H227.101875V154.451171875H774.52375zM983.404296875 689.38009765625L521.77125 994.64599609375A38.78875 38.78875 0 0 1 479.22875 994.64599609375L17.595703125 689.38009765625A39.41437500000001 39.41437500000001 0 0 1 0 656.90625V39.4143750000001A39.257968749999996 39.257968749999996 0 0 1 39.414375 0H962.21125A39.1015625 39.1015625 0 0 1 1001 39.4143750000001V656.90625A38.5150390625 38.5150390625 0 0 1 983.404296875 689.38009765625z" />
    <glyph glyph-name="vocabulary"
      unicode="&#xE01F;"
      horiz-adv-x="1001" d="M855.6790429687501 58.65234375H253.63228515625V942.34765625H856.2069140625zM885.27892578125 1001H115.975234375A29.326171875 29.326171875 0 1 1 115.975234375 942.34765625H194.9212890625V883.08923828125H115.975234375A29.326171875 29.326171875 0 0 1 115.975234375 824.43689453125H194.9212890625V765.217578125H115.975234375A29.326171875 29.326171875 0 0 1 115.975234375 706.565234375H194.9212890625V647.34591796875H115.975234375A29.326171875 29.326171875 0 1 1 115.975234375 588.69357421875H194.9212890625V530.04123046875H115.975234375A29.326171875 29.326171875 0 1 1 115.975234375 471.38888671875H194.9212890625V411.9349609375H115.975234375A29.326171875 29.326171875 0 1 1 115.975234375 353.2826171875H194.9212890625V294.06330078125H115.975234375A29.091562500000002 29.091562500000002 0 1 1 115.79927734375 235.88017578125H194.9212890625V176.1329882812499H115.975234375A29.091562500000002 29.091562500000002 0 1 1 115.79927734375 117.9498632812499H194.9212890625V58.65234375H115.975234375A29.326171875 29.326171875 0 1 1 115.975234375 0H885.2984765625A29.834492187499997 29.834492187499997 0 0 1 914.3900390625 29.5998828125V971.9475390625A29.091562500000002 29.091562500000002 0 0 1 885.27892578125 1001zM721.1305664062501 758.41390625H387.652890625V797.88693359375H721.6584375zM750.75 856.5979296875H357.52513671875A29.091562500000002 29.091562500000002 0 0 1 328.453125 827.5063671875V728.8140234375A29.326171875 29.326171875 0 0 1 357.5446875 699.7224609375H750.75A29.03291015625 29.03291015625 0 0 1 779.8415625 728.8140234375V827.5063671875A29.091562500000002 29.091562500000002 0 0 1 750.75 856.5979296875z" />
    <glyph glyph-name="workPlan"
      unicode="&#xE020;"
      horiz-adv-x="1001" d="M182.2523828125 71.5363085937499V822.40361328125H252.81115234375V715.34353515625A35.836582031249996 35.836582031249996 0 0 1 288.334921875 679.3309960937501H712.5868750000001A35.308710937499995 35.308710937499995 0 0 1 747.621875 714.854765625V821.91484375H818.18064453125V71.5363085937499zM323.369921875 822.40361328125H358.89369140625A35.660625 35.660625 0 0 1 392.970703125 846.7443359375L419.73572265625 929.46369140625H580.8146093749999L608.5376171875 846.7443359375A34.898144531250004 34.898144531250004 0 0 1 641.63708984375 822.40361328125H677.160859375V750.8673046875H323.85869140625zM853.8021679687499 893.939921875H667.40501953125L640.17078125 976.65927734375A35.523769531250004 35.523769531250004 0 0 1 606.07421875 1001H394.4174609375001A35.50421875 35.50421875 0 0 1 360.84876953125 976.65927734375L333.59498046875 893.939921875H147.19783203125A35.836582031249996 35.836582031249996 0 0 1 111.6740625 857.9273828125V35.5237695312501A35.71927734375 35.71927734375 0 0 1 147.19783203125 0H853.8021679687499A35.836582031249996 35.836582031249996 0 0 1 889.3259375 36.0125390625001V858.41615234375A35.71927734375 35.71927734375 0 0 1 853.8021679687499 893.939921875zM500.5 893.939921875A35.71927734375 35.71927734375 0 0 1 464.97623046875 858.41615234375V822.40361328125A35.71927734375 35.71927734375 0 0 1 500.5 786.87984375A35.308710937499995 35.308710937499995 0 0 1 535.5350000000001 822.40361328125V858.41615234375A35.308710937499995 35.308710937499995 0 0 1 500.5 893.939921875zM712.1763085937499 572.27091796875H288.334921875A35.777929687500006 35.777929687500006 0 0 1 288.334921875 500.734609375H712.1958593749999A35.777929687500006 35.777929687500006 0 0 1 712.1958593749999 572.27091796875zM712.1763085937499 429.19830078125H288.334921875A35.777929687500006 35.777929687500006 0 0 1 288.334921875 357.6619921874999H712.1958593749999A35.777929687500006 35.777929687500006 0 0 1 712.1958593749999 429.19830078125zM712.1763085937499 286.145234375H288.334921875A35.777929687500006 35.777929687500006 0 0 1 288.334921875 214.6089257812499H712.1958593749999A35.777929687500006 35.777929687500006 0 0 1 712.1958593749999 286.145234375z" />
    <glyph glyph-name="xls"
      unicode="&#xE021;"
      horiz-adv-x="1051.128203125" d="M525.5641015625 73.7846484375L65.690625 161.39169921875V839.60830078125L525.5641015625 927.19580078125zM579.3678515624999 993.5316015625A32.532500000000006 32.532500000000006 0 0 1 552.4659765624999 1000.4134765625L26.901875 900.3134765625A33.236328125 33.236328125 0 0 1 0 867.76142578125V133.2385742187499A33.41228515625 33.41228515625 0 0 1 26.901875 100.6865234375L552.4659765624999 0.5865234375A32.532500000000006 32.532500000000006 0 0 1 579.3678515624999 7.4683984375A34.31162109375 34.31162109375 0 0 1 591.2547265625 33.1190234375V967.8809765625A32.063281249999996 32.063281249999996 0 0 1 579.3678515624999 992.9059765625zM1017.9700781249998 867.76142578125H558.0966015624999A33.236328125 33.236328125 0 0 1 525.5641015625 834.52509765625A33.5100390625 33.5100390625 0 0 1 558.8004296875 800.74134765625H985.359375V200.18044921875H558.0966015624999A33.236328125 33.236328125 0 0 1 558.7222265624999 133.86419921875H1018.595703125A33.236328125 33.236328125 0 0 1 1051.128203125 167.10052734375V834.60330078125A32.982167968750005 32.982167968750005 0 0 1 1017.9700781249998 867.76142578125zM689.4974023437501 733.87767578125H558.1161523437501A33.236328125 33.236328125 0 0 1 525.58365234375 700.64134765625A33.5100390625 33.5100390625 0 0 1 558.81998046875 666.8575976562499H690.142578125C707.73828125 666.8575976562499 722.675078125 681.87259765625 722.675078125 700.64134765625A32.982167968750005 32.982167968750005 0 0 1 689.4974023437501 733.87767578125zM689.4974023437501 600.5999999999999H558.1161523437501A33.236328125 33.236328125 0 0 1 525.58365234375 567.3636718749999A33.5100390625 33.5100390625 0 0 1 558.81998046875 533.579921875H690.142578125C707.73828125 533.579921875 722.675078125 548.594921875 722.675078125 567.3636718749999A32.982167968750005 32.982167968750005 0 0 1 689.4974023437501 600.5999999999999zM689.4974023437501 467.263671875H558.1161523437501A33.236328125 33.236328125 0 0 1 525.58365234375 434.02734375A33.5100390625 33.5100390625 0 0 1 558.81998046875 400.2435937500001H690.142578125C707.73828125 400.2435937500001 722.675078125 415.2585937500001 722.675078125 434.02734375A32.982167968750005 32.982167968750005 0 0 1 689.4974023437501 467.263671875zM689.4974023437501 333.43857421875H558.1161523437501A33.236328125 33.236328125 0 0 1 525.58365234375 300.20224609375A33.5100390625 33.5100390625 0 0 1 558.81998046875 266.4184960937499H690.142578125C707.73828125 266.4184960937499 722.675078125 281.43349609375 722.675078125 300.2022460937499A32.982167968750005 32.982167968750005 0 0 1 689.4974023437501 333.43857421875zM886.5692773437501 733.87767578125H820.87865234375A33.236328125 33.236328125 0 0 1 788.3461523437501 700.64134765625A33.5100390625 33.5100390625 0 0 1 821.5824804687501 666.8575976562499H887.27310546875C904.86880859375 666.8575976562499 919.80560546875 681.87259765625 919.80560546875 700.64134765625A32.982167968750005 32.982167968750005 0 0 1 886.5692773437501 733.87767578125zM886.5692773437501 600.5999999999999H820.87865234375A33.236328125 33.236328125 0 0 1 788.3461523437501 567.3636718749999A33.5100390625 33.5100390625 0 0 1 821.5824804687501 533.579921875H887.27310546875C904.86880859375 533.579921875 919.80560546875 548.594921875 919.80560546875 567.3636718749999A32.982167968750005 32.982167968750005 0 0 1 886.5692773437501 600.5999999999999zM886.5692773437501 467.263671875H820.87865234375A33.236328125 33.236328125 0 0 1 788.3461523437501 434.02734375A33.5100390625 33.5100390625 0 0 1 821.5824804687501 400.2435937500001H887.27310546875C904.86880859375 400.2435937500001 919.80560546875 415.2585937500001 919.80560546875 434.02734375A32.982167968750005 32.982167968750005 0 0 1 886.5692773437501 467.263671875zM886.5692773437501 333.43857421875H820.87865234375A33.236328125 33.236328125 0 0 1 788.3461523437501 300.20224609375A33.5100390625 33.5100390625 0 0 1 821.5824804687501 266.4184960937499H887.27310546875C904.86880859375 266.4184960937499 919.80560546875 281.43349609375 919.80560546875 300.2022460937499A32.982167968750005 32.982167968750005 0 0 1 886.5692773437501 333.43857421875zM452.3659765625 389.060546875L222.11642578125 656.30017578125A32.532500000000006 32.532500000000006 0 0 1 176.2307421875 659.799765625L175.82017578125 659.42830078125A33.783750000000005 33.783750000000005 0 0 1 172.69205078125 612.50642578125L402.9416015625 345.32544921875A32.532500000000006 32.532500000000006 0 0 1 448.82728515625 341.825859375L449.2378515625 342.19732421875C462.3759765625 354.70982421875 464.2528515625 375.375 452.3659765625 389.060546875zM446.7353515625 693.83767578125A32.532500000000006 32.532500000000006 0 0 1 401.1429296875 687.6791796875L401.1429296875 687.5814257812499L170.81517578125 387.2618749999999A33.783750000000005 33.783750000000005 0 0 1 177.07142578125 340.965625A32.532500000000006 32.532500000000006 0 0 1 222.74205078125 346.59625H222.74205078125L452.3659765625 646.91580078125A33.783750000000005 33.783750000000005 0 0 1 446.7353515625 693.83767578125z" />
    <glyph glyph-name="zip"
      unicode="&#xE022;"
      horiz-adv-x="1001" d="M667.3268164062499 1001H111.22439453125V0H889.77560546875V778.5512109375zM667.3268164062499 883.0305859375L771.8061914062499 778.5512109375H667.3268164062499zM806.352421875 83.4036328125H194.647578125V917.57681640625H389.29515625V861.97439453125H444.897578125V917.57681640625H611.72439453125V722.92923828125H806.37197265625V83.4231835937501zM389.2756054687501 806.352421875L444.897578125 806.352421875L444.897578125 750.75L389.2756054687501 750.75L389.2756054687501 806.352421875zM333.67318359375 861.97439453125L389.2756054687501 861.97439453125L389.2756054687501 806.352421875L333.67318359375 806.352421875L333.67318359375 861.97439453125zM333.67318359375 750.75L389.2756054687501 750.75L389.2756054687501 695.147578125L333.67318359375 695.147578125L333.67318359375 750.75zM389.2756054687501 695.147578125L444.897578125 695.147578125L444.897578125 639.52560546875L389.2756054687501 639.52560546875L389.2756054687501 695.147578125zM333.67318359375 639.52560546875L389.2756054687501 639.52560546875L389.2756054687501 583.92318359375L333.67318359375 583.92318359375L333.67318359375 639.52560546875zM333.67318359375 528.3012109375L444.897578125 528.3012109375L444.897578125 361.4743945312501L333.67318359375 361.4743945312501L333.67318359375 528.3012109375z" />
  </font>
</defs>
</svg>
