<svg xmlns="http://www.w3.org/2000/svg" width="512" height="512" viewBox="0 0 512 512">
  <title>add</title>
  <g>
    <path d="M256,0A256,256,0,1,0,512,256,255.26,255.26,0,0,0,256,0Zm0,465.45C139.64,465.45,46.55,372.36,46.55,256S139.64,46.55,256,46.55,465.45,139.64,465.45,256,372.36,465.45,256,465.45Z"/>
    <path d="M349.09,232.73H279.27V162.91c0-14-9.31-23.27-23.27-23.27s-23.27,9.31-23.27,23.27v69.82H162.91c-14,0-23.27,9.31-23.27,23.27s9.31,23.27,23.27,23.27h69.82v69.82c0,14,9.31,23.27,23.27,23.27s23.27-9.31,23.27-23.27V279.27h69.82c14,0,23.27-9.31,23.27-23.27S363.05,232.73,349.09,232.73Z"/>
  </g>
</svg>
