<svg xmlns="http://www.w3.org/2000/svg" width="622.07" height="512" viewBox="0 0 622.07 512">
  <title>balance</title>
  <g>
    <path d="M231.1,224.18l-41.32-16a18.58,18.58,0,1,0-13.45,34.27l41,16a18.58,18.58,0,1,0,13.77-34.27Z"/>
    <path d="M345.44,455.1a31.39,31.39,0,0,1-40.69,17.74l-.3-.12a32,32,0,1,1,41.35-18.5Q345.62,454.67,345.44,455.1ZM235.9,391.69,71.27,326.35l66.3-166.55,164.63,65ZM612.24,29.12,553.95,5.74a77.51,77.51,0,0,0-101,42.57q-.27.65-.52,1.31L323.34,375a66.43,66.43,0,0,0-44.84,10.89l65-164.63a18.58,18.58,0,0,0-10.25-24L134.05,118.16a18.58,18.58,0,0,0-24.27,10.07l-.08.18-73,184.17-12.17-4.8a18.58,18.58,0,0,0-13.45,34.59L239.43,433l2.24,1,5.77,2.24a68.7,68.7,0,1,0,110.5-47.4L487,63.39a40.68,40.68,0,0,1,52.6-23.28l.57.22,58.29,23.06a18.58,18.58,0,0,0,13.77-34.27Z"/>
  </g>
</svg>
