<svg xmlns="http://www.w3.org/2000/svg" width="565.19" height="512" viewBox="0 0 565.19 512">
  <title>calendar</title>
  <g>
    <path d="M390.09,33.25V0H350.2V33.25H215V0H175.1V33.25H0V512H565.19V33.25Zm-215,39.9v33.25H215V73.14H350.2v26.6h39.9V73.14H525.3v66.49H39.9V73.14ZM39.9,472.1V179.53H525.3V472.1Z"/>
    <polygon points="129.66 352.42 196.16 352.42 196.16 418.91 129.66 418.91 129.66 352.42"/>
    <rect x="249.35" y="352.42" width="66.49" height="66.49"/>
    <rect x="369.04" y="352.42" width="66.49" height="66.49"/>
    <rect x="249.35" y="232.73" width="66.49" height="66.49"/>
    <rect x="369.04" y="232.73" width="66.49" height="66.49"/>
    <polygon points="129.66 232.73 196.16 232.73 196.16 299.22 129.66 299.22 129.66 232.73"/>
  </g>
</svg>
