<svg xmlns="http://www.w3.org/2000/svg" width="512" height="512" viewBox="0 0 512 512">
  <title>delivery</title>
  <g>
    <path d="M158.06,268.82H354.93a14,14,0,0,0,0-27.65H158.06a14,14,0,1,0,0,27.65Z"/>
    <path d="M158.06,163.23h75.28a14,14,0,0,0,0-28H158.06a14,14,0,1,0,0,27.65Z"/>
    <path d="M158.06,324.12H354.93a14,14,0,0,0,0-27.65H158.06a14,14,0,1,0,0,27.65Z"/>
    <path d="M158.06,379.75H354.93a14,14,0,0,0,0-27.65H158.06a14,14,0,1,0,0,27.65Z"/>
    <path d="M426.89,470.36H85.44V42.31H426.89ZM447.87.67,64.12,0a21,21,0,0,0-21,21l.67,470.36A20.76,20.76,0,0,0,64.46,512H447.87a20.83,20.83,0,0,0,21-20.65V21.65A21,21,0,0,0,447.87.67Z"/>
  </g>
</svg>
