<svg xmlns="http://www.w3.org/2000/svg" width="576" height="512" viewBox="0 0 576 512">
  <title>equipment</title>
  <path d="M34.56,477.12V136.64c0-14.4,11.52-26.24,25.6-26.24H236.48a26.09,26.09,0,0,1,25.92,26.24v7.68a17.21,17.21,0,0,0,17.28,17.28h166.4c14.08,0,25.6,11.84,25.6,26.24v289.6ZM236.48,75.52H104.32V60.8a25.74,25.74,0,0,1,25.6-25.92H306.24A25.81,25.81,0,0,1,332.16,60.8v7.68a17.48,17.48,0,0,0,17.28,17.6h166.4A25.74,25.74,0,0,1,541.44,112V401.6h-35.2V187.2a60.8,60.8,0,0,0-60.48-60.8H296.32a60.8,60.8,0,0,0-59.84-51.2Zm279-24.32H366.08A60.8,60.8,0,0,0,306.24,0h-176A60.8,60.8,0,0,0,69.76,60.8V75.52h-9.6A60.8,60.8,0,0,0,0,136.32v358.4A17.21,17.21,0,0,0,17.28,512H489a17.48,17.48,0,0,0,17.28-17.6V436.48h52.48A17.21,17.21,0,0,0,576,419.2V112A60.8,60.8,0,0,0,515.52,51.2Z"/>
</svg>
