<svg xmlns="http://www.w3.org/2000/svg" width="667.62" height="512" viewBox="0 0 667.62 512">
  <title>images</title>
  <g>
    <g>
      <path d="M603.06,80h-15V65c0-35.51-28.71-64.41-64-64.41H64.56C29.27.55.55,29.45.55,65V367.55c0,35.51,28.72,64.41,64,64.41h15V447c0,35.51,28.72,64.41,64,64.41H603.06c35.3,0,64-28.89,64-64.41V144.45C667.07,108.94,638.35,80,603.06,80ZM619.9,447A16.9,16.9,0,0,1,603.06,464H143.57A16.9,16.9,0,0,1,126.72,447V144.45a16.9,16.9,0,0,1,16.85-16.95H603.06a16.9,16.9,0,0,1,16.84,16.95V447ZM47.72,367.55V65A16.9,16.9,0,0,1,64.56,48H524.05A16.9,16.9,0,0,1,540.89,65V80H143.57c-35.3,0-64,28.89-64,64.41v240h-15A16.9,16.9,0,0,1,47.72,367.55Z"/>
      <path d="M603.06,512H143.57C108,512,79,482.86,79,447V432.51H64.56C29,432.51,0,403.37,0,367.55V65C0,29.14,29,0,64.56,0H524.05c35.6,0,64.56,29.14,64.56,65V79.49h14.44c35.6,0,64.56,29.14,64.56,65V447C667.62,482.86,638.66,512,603.06,512ZM64.56,1.11C29.57,1.11,1.1,29.75,1.1,65V367.55c0,35.21,28.47,63.85,63.46,63.85H80.11V447c0,35.21,28.47,63.85,63.46,63.85H603.06c35,0,63.46-28.64,63.46-63.85V144.45c0-35.21-28.47-63.85-63.46-63.85H587.51V65c0-35.21-28.47-63.85-63.46-63.85H64.56ZM603.06,464.54H143.57a17.47,17.47,0,0,1-17.4-17.5V144.45a17.47,17.47,0,0,1,17.4-17.5H603.06a17.47,17.47,0,0,1,17.4,17.5V447A17.47,17.47,0,0,1,603.06,464.54ZM143.57,128.06a16.36,16.36,0,0,0-16.3,16.39V447a16.36,16.36,0,0,0,16.3,16.39H603.06A16.36,16.36,0,0,0,619.35,447V144.45a16.36,16.36,0,0,0-16.29-16.39Zm-63.46,257H64.56a17.47,17.47,0,0,1-17.4-17.5V65a17.47,17.47,0,0,1,17.4-17.5H524.05A17.47,17.47,0,0,1,541.45,65V80.6H143.57c-35,0-63.46,28.64-63.46,63.85v240.6ZM64.56,48.56A16.36,16.36,0,0,0,48.27,65V367.55a16.37,16.37,0,0,0,16.3,16.39H79V144.45c0-35.82,29-65,64.56-65H540.35V65a16.36,16.36,0,0,0-16.29-16.39H64.56Z"/>
    </g>
    <g>
      <path d="M552.75,393.71,537.23,378.1l-75.15-75.61a16.77,16.77,0,0,0-23.82,0l-42.7,43-79.77-80.26a16.77,16.77,0,0,0-23.82,0L173.39,384.5l-9.16,9.22a17,17,0,0,0,0,24l9.53,9.59a16.78,16.78,0,0,0,23.82,0l18.93-19,23.58-23.73L292,332.31a16.77,16.77,0,0,1,23.82,0l51.87,52.19,23.58,23.73,18.93,19a16.78,16.78,0,0,0,23.82,0l9.53-9.59a17,17,0,0,0,0-24l-9.16-9.22L428.91,379l21.26-21.39,26.72,26.88,23.58,23.73,18.93,19a16.79,16.79,0,0,0,23.82,0l9.53-9.59A17,17,0,0,0,553.88,395Q553.35,394.32,552.75,393.71Z"/>
      <path d="M422.09,432.79a17.48,17.48,0,0,1-3.14-.29,17.26,17.26,0,0,1-9.16-4.84l-94.39-95a16.22,16.22,0,0,0-23,0l-94.38,95a17.25,17.25,0,0,1-9.16,4.84,17.52,17.52,0,0,1-6.28,0,17.26,17.26,0,0,1-9.16-4.84l-9.53-9.59a17.4,17.4,0,0,1-4.9-9.77,17.65,17.65,0,0,1,4.9-15L291.58,264.8a17.32,17.32,0,0,1,24.6,0l79.38,79.87,42.31-42.57a17.32,17.32,0,0,1,24.6,0l90.67,91.22c.4.4.79.84,1.17,1.3a17.51,17.51,0,0,1-1.17,23.46l-9.53,9.59a17.33,17.33,0,0,1-12.3,5.12h0a17.33,17.33,0,0,1-12.3-5.12l-68.84-69.26L429.69,379l14.23,14.31a17.65,17.65,0,0,1,4.9,15,17.41,17.41,0,0,1-4.9,9.77l-9.53,9.59a17.26,17.26,0,0,1-9.16,4.84A17.62,17.62,0,0,1,422.09,432.79Zm-118.21-106a17.23,17.23,0,0,1,12.3,5.13l94.39,95a16.16,16.16,0,0,0,8.58,4.53,16.33,16.33,0,0,0,5.89,0,16.16,16.16,0,0,0,8.58-4.53l9.53-9.59a16.32,16.32,0,0,0,4.59-9.15,16.54,16.54,0,0,0-4.59-14l-15-15.1,22-22.17,69.62,70a16.2,16.2,0,0,0,8.06,4.42,16.23,16.23,0,0,0,15-4.42l9.53-9.59a16.41,16.41,0,0,0,1.1-22c-.35-.43-.72-.84-1.1-1.22l-90.67-91.22a16.22,16.22,0,0,0-23,0l-43.09,43.35L315.4,265.59a16.22,16.22,0,0,0-23,0L164.62,394.11a16.53,16.53,0,0,0-4.59,14,16.3,16.3,0,0,0,4.59,9.15l9.53,9.59a16.16,16.16,0,0,0,8.58,4.53,16.34,16.34,0,0,0,5.89,0,16.16,16.16,0,0,0,8.58-4.53l94.38-95A17.23,17.23,0,0,1,303.88,326.79Z"/>
    </g>
    <g>
      <path d="M540.89,157.17a64.31,64.31,0,0,0-23.7-4.5c-35.84,0-65,29.34-65,65.39s29.16,65.39,65,65.39a64.3,64.3,0,0,0,23.7-4.5,65.54,65.54,0,0,0,0-121.79ZM517.19,236A17.94,17.94,0,1,1,535,218.06,17.88,17.88,0,0,1,517.19,236Z"/>
      <path d="M517.2,284c-36.14,0-65.55-29.58-65.55-65.95s29.4-65.95,65.55-65.95a64.73,64.73,0,0,1,23.9,4.54,66.09,66.09,0,0,1,0,122.82A64.74,64.74,0,0,1,517.2,284Zm0-130.79c-35.54,0-64.45,29.09-64.45,64.84s28.91,64.84,64.45,64.84a63.62,63.62,0,0,0,23.5-4.46,65,65,0,0,0,0-120.75A63.64,63.64,0,0,0,517.2,153.22Zm0,83.33a18.49,18.49,0,1,1,18.38-18.49A18.45,18.45,0,0,1,517.19,236.55Zm0-35.87a17.38,17.38,0,1,0,17.28,17.38A17.35,17.35,0,0,0,517.19,200.68Z"/>
    </g>
  </g>
</svg>
