<svg xmlns="http://www.w3.org/2000/svg" width="622.16" height="512" viewBox="0 0 622.16 512">
  <title>photo</title>
  <g>
    <path d="M310.86,430.39a137.59,137.59,0,1,1,0-275.18h0A138.26,138.26,0,0,1,449.56,293h0A138.26,138.26,0,0,1,311.3,430.39ZM583.81,73.59H463.39L392,6.69A24.09,24.09,0,0,0,375.08,0H247.53A24.08,24.08,0,0,0,231,6.69l-71.36,66.9H38.36A38.36,38.36,0,0,0,0,111.95v361.7A38.35,38.35,0,0,0,38.36,512H583.81a38.35,38.35,0,0,0,38.36-38.35V111.95A38.36,38.36,0,0,0,583.81,74Z"/>
    <path d="M223,293c0-48.17,39.25-87,87.86-87s87.86,38.8,87.86,87-39.25,87-87.86,87A87.42,87.42,0,0,1,223,293Z"/>
  </g>
</svg>
