<svg xmlns="http://www.w3.org/2000/svg" width="512" height="512" viewBox="0 0 512 512">
  <title>projectsGroups</title>
  <g>
    <path d="M234.6,321.32H388.86a11.12,11.12,0,0,0,0-21.68H234.6a11.12,11.12,0,1,0,0,21.68Z"/>
    <path d="M234.6,239h58.93a11.12,11.12,0,0,0,0-22H234.6a11.12,11.12,0,1,0,0,21.68Z"/>
    <path d="M234.6,365H388.86a11.12,11.12,0,0,0,0-21.68H234.6a11.12,11.12,0,1,0,0,21.68Z"/>
    <path d="M234.6,408.6H388.86a11.12,11.12,0,0,0,0-22H234.6a11.12,11.12,0,1,0,0,21.68Z"/>
    <path d="M445,479.2H178.17V144.26H445.29ZM145.37,127.86V423.33H122V88.39h267.4v23.35H161.49A16.4,16.4,0,0,0,145.37,127.86ZM89.5,72.27V367.46H66.15V32.52h267.4V55.87H105.62A16.4,16.4,0,0,0,89.5,72Zm371.91,39.47H421.94V72a16.4,16.4,0,0,0-16.4-16.12H366.07V16.4A16.4,16.4,0,0,0,349.67,0H50.31a16.4,16.4,0,0,0-16.4,16.4V383.86a16.43,16.43,0,0,0,16.4,16.4H89.22v39.47a16.13,16.13,0,0,0,16.12,16.12h39.75v39.47c0,9.17,7.23,16.68,16.12,16.68H461.69a16.67,16.67,0,0,0,16.4-16.68V127.86a16.4,16.4,0,0,0-16.4-16.12Z"/>
  </g>
</svg>
