<svg xmlns="http://www.w3.org/2000/svg" width="512" height="512" viewBox="0 0 512 512">
  <title>push</title>
  <g>
    <path d="M383.7,233.38A16.11,16.11,0,0,0,369,224H304.43V16A16.08,16.08,0,0,0,288.29,0H223.71a16.08,16.08,0,0,0-16.14,16V224H143a16.17,16.17,0,0,0-14.69,9.38,15.85,15.85,0,0,0,2.55,17.15l113,128a16.2,16.2,0,0,0,24.28,0l113-128A15.84,15.84,0,0,0,383.7,233.38Z"/>
    <path d="M433.59,352v96H78.41V352H13.84V480a32.14,32.14,0,0,0,32.29,32H465.87a32.12,32.12,0,0,0,32.29-32V352Z"/>
  </g>
</svg>
