<svg xmlns="http://www.w3.org/2000/svg" width="511.99" height="512" viewBox="0 0 511.99 512">
  <title>smile_neutral</title>
  <g>
    <path d="M437.1,437.09c99.86-99.86,99.85-262.34,0-362.18S174.74-25,74.89,74.89-25,337.24,74.9,437.12,337.23,537,437.1,437.09ZM102.83,102.83c84.45-84.45,221.87-84.46,306.34,0s84.44,221.88,0,306.33-221.88,84.46-306.33,0S18.37,187.28,102.83,102.83Z"/>
    <path d="M138.31,201.88h64.55a15.19,15.19,0,1,0,0-30.38H138.31a15.19,15.19,0,1,0,0,30.38Z"/>
    <path d="M309.12,201.88h64.55a15.19,15.19,0,1,0,0-30.38H309.12a15.19,15.19,0,0,0,0,30.38Z"/>
    <path d="M146.86,342.89a16.8,16.8,0,0,0,16.79,16.79H348.35a16.79,16.79,0,1,0,0-33.59H163.65A16.79,16.79,0,0,0,146.86,342.89Z"/>
  </g>
</svg>
