<svg xmlns="http://www.w3.org/2000/svg" width="511.99" height="512" viewBox="0 0 511.99 512">
  <title>smile_good</title>
  <path d="M437.11,74.91C337.24-25,174.75-25,74.9,74.89s-99.86,262.35,0,362.22,262.33,99.85,362.2,0S537,174.76,437.11,74.91ZM409.16,409.17c-84.45,84.45-221.87,84.46-306.33,0s-84.46-221.9,0-306.35,221.87-84.46,306.34,0S493.62,324.72,409.16,409.17ZM160.46,186.68a29.93,29.93,0,1,1,29.94,29.94A29.94,29.94,0,0,1,160.46,186.68Zm135.74,0a29.94,29.94,0,1,1,29.95,29.94A29.95,29.95,0,0,1,296.2,186.68ZM367,309.29c-18.55,42.9-62,70.62-110.68,70.62-49.73,0-93.43-27.86-111.34-71a14.48,14.48,0,1,1,26.75-11.1c13.41,32.28,46.61,53.12,84.59,53.12,37.12,0,70.13-20.86,84.1-53.16A14.48,14.48,0,0,1,367,309.29Z"/>
</svg>
