<svg xmlns="http://www.w3.org/2000/svg" width="512" height="512" viewBox="0 0 512 512">
  <title>smile_bad</title>
  <path d="M437.11,74.91C337.24-25,174.75-25,74.9,74.89s-99.86,262.35,0,362.22,262.33,99.85,362.19,0S537,174.76,437.11,74.91ZM409.16,409.17c-84.45,84.45-221.87,84.46-306.33,0s-84.46-221.9,0-306.35,221.87-84.46,306.34,0S493.61,324.72,409.16,409.17ZM371.8,357.24a14.48,14.48,0,0,1-26.58,11.49c-14-32.29-47-53.16-84.1-53.16-38,0-71.19,20.85-84.59,53.12a14.48,14.48,0,1,1-26.75-11.1c17.91-43.12,61.62-71,111.34-71C309.8,286.61,353.25,314.33,371.8,357.24ZM160.47,186.68a29.93,29.93,0,1,1,29.94,29.94A29.94,29.94,0,0,1,160.47,186.68Zm135.73,0a29.94,29.94,0,1,1,29.94,29.94A29.95,29.95,0,0,1,296.2,186.68Z"/>
</svg>
