<svg xmlns="http://www.w3.org/2000/svg" width="512" height="512" viewBox="0 0 512 512">
  <title>stock</title>
  <path d="M472,472H435.84V256a19.84,19.84,0,0,0-19.52-20.16H96a19.84,19.84,0,0,0-20.16,19.51q0,.32,0,.65V472H40V186.91l216-143,216,143ZM395.84,313.94H116.16V275.86h280Zm0,79H116.16v-39h280Zm0,79H116.16V433h280ZM503,159.39,266.88,3.25a19.84,19.84,0,0,0-21.76,0L9,159.39A20.16,20.16,0,0,0,0,176V491.84A20.08,20.08,0,0,0,20.16,512h472A20,20,0,0,0,512,491.84V176A19.7,19.7,0,0,0,503,159.39Z"/>
</svg>
