<svg xmlns="http://www.w3.org/2000/svg" width="512" height="512" viewBox="0 0 512 512">
  <title>vocabulary</title>
  <g>
    <path d="M437.67,482H129.73V30H437.94ZM452.81,0H59.32a15,15,0,1,0,0,30H99.7V60.31H59.32a15,15,0,0,0,0,30H99.7v30.29H59.32a15,15,0,0,0,0,30H99.7v30.29H59.32a15,15,0,1,0,0,30H99.7v30H59.32a15,15,0,1,0,0,30H99.7V301.3H59.32a15,15,0,1,0,0,30H99.7v30.29H59.32a14.88,14.88,0,1,0-.09,29.76H99.7v30.56H59.32a14.88,14.88,0,1,0-.09,29.76H99.7V482H59.32a15,15,0,1,0,0,30h393.5a15.26,15.26,0,0,0,14.88-15.14v-482A14.88,14.88,0,0,0,452.81,0Z"/>
    <path d="M368.85,124.08H198.28V103.89H369.12ZM384,73.86H182.87A14.88,14.88,0,0,0,168,88.74v50.48a15,15,0,0,0,14.88,14.88H384a14.85,14.85,0,0,0,14.88-14.88V88.74A14.88,14.88,0,0,0,384,73.86Z"/>
  </g>
</svg>
