<svg xmlns="http://www.w3.org/2000/svg" width="512" height="512" viewBox="0 0 512 512">
  <title>workPlan</title>
  <g>
    <path d="M93.22,475.41V91.35h36.09v54.76a18.33,18.33,0,0,0,18.17,18.42h217a18.06,18.06,0,0,0,17.92-18.17V91.6h36.09V475.41ZM165.4,91.35h18.17A18.24,18.24,0,0,0,201,78.9l13.69-42.31h82.39L311.26,78.9a17.85,17.85,0,0,0,16.93,12.45h18.17v36.59H165.65ZM436.71,54.76H341.37L327.44,12.45A18.17,18.17,0,0,0,310,0H201.74a18.16,18.16,0,0,0-17.17,12.45L170.63,54.76H75.29A18.33,18.33,0,0,0,57.12,73.18V493.83A18.27,18.27,0,0,0,75.29,512H436.71a18.33,18.33,0,0,0,18.17-18.42V72.93A18.27,18.27,0,0,0,436.71,54.76Z"/>
    <path d="M256,54.76a18.27,18.27,0,0,0-18.17,18.17V91.35A18.27,18.27,0,0,0,256,109.52a18.06,18.06,0,0,0,17.92-18.17V72.93A18.06,18.06,0,0,0,256,54.76Z"/>
    <path d="M364.27,219.29H147.48a18.3,18.3,0,0,0,0,36.59h216.8a18.3,18.3,0,0,0,0-36.59Z"/>
    <path d="M364.27,292.47H147.48a18.3,18.3,0,0,0,0,36.59h216.8a18.3,18.3,0,0,0,0-36.59Z"/>
    <path d="M364.27,365.64H147.48a18.3,18.3,0,0,0,0,36.59h216.8a18.3,18.3,0,0,0,0-36.59Z"/>
  </g>
</svg>
