<svg xmlns="http://www.w3.org/2000/svg" width="537.64" height="512" viewBox="0 0 537.64 512">
  <title>xls</title>
  <g>
    <path d="M268.82,474.26,33.6,429.45V82.55l235.22-44.8ZM296.34,3.82A16.64,16.64,0,0,0,282.58.3L13.76,51.5A17,17,0,0,0,0,68.15V443.85A17.09,17.09,0,0,0,13.76,460.5l268.82,51.2a16.64,16.64,0,0,0,13.76-3.52,17.55,17.55,0,0,0,6.08-13.12V16.94a16.4,16.4,0,0,0-6.08-12.8Z"/>
    <path d="M520.68,68.15H285.46a17,17,0,0,0-16.64,17,17.14,17.14,0,0,0,17,17.28H504V409.61H285.46a17,17,0,0,0,.32,33.92H521a17,17,0,0,0,16.64-17V85.11A16.87,16.87,0,0,0,520.68,68.15Z"/>
    <path d="M352.67,136.63h-67.2a17,17,0,0,0-16.64,17,17.14,17.14,0,0,0,17,17.28H353c9,0,16.64-7.68,16.64-17.28A16.87,16.87,0,0,0,352.67,136.63Z"/>
    <path d="M352.67,204.8h-67.2a17,17,0,0,0-16.64,17,17.14,17.14,0,0,0,17,17.28H353c9,0,16.64-7.68,16.64-17.28A16.87,16.87,0,0,0,352.67,204.8Z"/>
    <path d="M352.67,273h-67.2a17,17,0,0,0-16.64,17,17.14,17.14,0,0,0,17,17.28H353c9,0,16.64-7.68,16.64-17.28A16.87,16.87,0,0,0,352.67,273Z"/>
    <path d="M352.67,341.45h-67.2a17,17,0,0,0-16.64,17,17.14,17.14,0,0,0,17,17.28H353c9,0,16.64-7.68,16.64-17.28A16.87,16.87,0,0,0,352.67,341.45Z"/>
    <path d="M453.47,136.63h-33.6a17,17,0,0,0-16.64,17,17.14,17.14,0,0,0,17,17.28h33.6c9,0,16.64-7.68,16.64-17.28A16.87,16.87,0,0,0,453.47,136.63Z"/>
    <path d="M453.47,204.8h-33.6a17,17,0,0,0-16.64,17,17.14,17.14,0,0,0,17,17.28h33.6c9,0,16.64-7.68,16.64-17.28A16.87,16.87,0,0,0,453.47,204.8Z"/>
    <path d="M453.47,273h-33.6a17,17,0,0,0-16.64,17,17.14,17.14,0,0,0,17,17.28h33.6c9,0,16.64-7.68,16.64-17.28A16.87,16.87,0,0,0,453.47,273Z"/>
    <path d="M453.47,341.45h-33.6a17,17,0,0,0-16.64,17,17.14,17.14,0,0,0,17,17.28h33.6c9,0,16.64-7.68,16.64-17.28A16.87,16.87,0,0,0,453.47,341.45Z"/>
    <path d="M231.38,313,113.61,176.31a16.64,16.64,0,0,0-23.47-1.79l-.21.19a17.28,17.28,0,0,0-1.6,24L206.1,335.37a16.64,16.64,0,0,0,23.47,1.79l.21-.19C236.5,330.57,237.46,320,231.38,313Z"/>
    <path d="M228.5,157.11a16.64,16.64,0,0,0-23.32,3.15l0,.05L87.37,313.92a17.28,17.28,0,0,0,3.2,23.68,16.64,16.64,0,0,0,23.36-2.88h0L231.38,181.11a17.28,17.28,0,0,0-2.88-24Z"/>
  </g>
</svg>
